<svg width="18" height="19" viewBox="0 0 18 19" fill="none" xmlns="http://www.w3.org/2000/svg">
<path d="M15.6301 3.9575C15.247 3.57425 14.7922 3.27023 14.2916 3.06281C13.791 2.85539 13.2545 2.74863 12.7126 2.74863C12.1707 2.74863 11.6342 2.85539 11.1336 3.06281C10.633 3.27023 10.1782 3.57425 9.79509 3.9575L9.00009 4.7525L8.20509 3.9575C7.43132 3.18373 6.38186 2.74903 5.28759 2.74903C4.19331 2.74903 3.14386 3.18373 2.37009 3.9575C1.59632 4.73127 1.16162 5.78072 1.16162 6.875C1.16162 7.96927 1.59632 9.01873 2.37009 9.7925L3.16509 10.5875L9.00009 16.4225L14.8351 10.5875L15.6301 9.7925C16.0133 9.40943 16.3174 8.95461 16.5248 8.45401C16.7322 7.95342 16.839 7.41686 16.839 6.875C16.839 6.33313 16.7322 5.79657 16.5248 5.29598C16.3174 4.79539 16.0133 4.34056 15.6301 3.9575Z" stroke="black" stroke-width="1.5" stroke-linecap="round" stroke-linejoin="round"/>
</svg>
