<svg width="29" height="28" viewBox="0 0 29 28" fill="none" xmlns="http://www.w3.org/2000/svg">
<path d="M20.4705 4.40234C22.1413 4.48694 23.7262 5.18836 24.9148 6.37695L25.1462 6.61914C26.2693 7.85914 26.8962 9.47537 26.8982 11.1562L26.8923 11.4639C26.7688 14.6472 24.7316 17.916 20.9109 21.1855V21.1865C19.1018 22.7281 17.1468 24.0901 15.075 25.2549L15.072 25.2568C14.9474 25.3238 14.8082 25.3594 14.6667 25.3594C14.5253 25.3594 14.3861 25.3238 14.2615 25.2568L14.2585 25.2549C12.1867 24.0901 10.2317 22.7281 8.42261 21.1865V21.1855C4.47868 17.8106 2.4353 14.4364 2.4353 11.1562L2.44409 10.8213C2.52869 9.1504 3.2301 7.56555 4.4187 6.37695L4.66089 6.14551C5.90089 5.02246 7.51712 4.39551 9.198 4.39355L9.63647 4.40625C11.7095 4.52403 13.5159 5.47741 14.6667 7.02441C15.898 5.36927 17.88 4.39355 20.1355 4.39355L20.4705 4.40234ZM19.738 6.11914C17.9027 6.24245 16.3761 7.21923 15.6111 8.74023L15.4587 9.07422C15.4104 9.19201 15.3363 9.29681 15.2429 9.38184L15.1433 9.45996C15.0023 9.55448 14.8365 9.60547 14.6667 9.60547C14.5395 9.60547 14.4146 9.57646 14.3005 9.52246L14.1902 9.45996C14.0844 9.38906 13.9961 9.29597 13.9314 9.1875L13.8748 9.07422C13.1742 7.36302 11.5618 6.25125 9.59546 6.11914L9.198 6.10645C7.94289 6.1078 6.7363 6.5756 5.8103 7.41406L5.62866 7.58691C4.68192 8.53366 4.14964 9.81735 4.14819 11.1562L4.15405 11.4326C4.28355 14.2889 6.39576 17.0201 8.76929 19.2012C11.1231 21.3642 13.688 22.9428 14.6667 23.5137C15.6455 22.9428 18.2104 21.3642 20.5642 19.2012C23.0142 16.9498 25.1853 14.1124 25.1853 11.1562L25.1794 10.9062C25.1206 9.7417 24.6603 8.63289 23.8777 7.76855L23.7048 7.58691C22.7581 6.64017 21.4744 6.10789 20.1355 6.10645L19.738 6.11914Z" fill="black" stroke="#181818" stroke-width="0.4"/>
</svg>
